<?xml version="1.0" encoding="UTF-8"?>
<svg version="1.1" xmlns="http://www.w3.org/2000/svg" width="256" height="256">
<path d="M0 0 C2.45767104 -0.00434431 4.91349783 -0.04069043 7.37084961 -0.07861328 C36.27921089 -0.28404533 63.9529388 10.75189205 85.92358398 29.37060547 C86.92905273 30.21236328 87.93452148 31.05412109 88.97045898 31.92138672 C111.22742127 51.10086971 127.37621192 80.10267441 130.92358398 109.37060547 C131.2709385 114.72432118 131.29524509 120.08384384 131.29418945 125.44702148 C131.29853376 127.90469253 131.33487988 130.36051932 131.37280273 132.81787109 C131.57823478 161.72623237 120.5422974 189.39996028 101.92358398 211.37060547 C101.08182617 212.37607422 100.24006836 213.38154297 99.37280273 214.41748047 C88.29105765 227.27736738 74.98876795 236.70985193 59.92358398 244.37060547 C58.96967773 244.86173828 58.01577148 245.35287109 57.03295898 245.85888672 C40.66412368 253.77375768 23.87638246 256.74475965 5.84716797 256.74121094 C3.38949693 256.74555524 0.93367014 256.78190136 -1.52368164 256.81982422 C-30.43204292 257.02525626 -58.10577083 245.98931889 -80.07641602 227.37060547 C-81.08188477 226.52884766 -82.08735352 225.68708984 -83.12329102 224.81982422 C-105.3802533 205.64034123 -121.52904395 176.63853653 -125.07641602 147.37060547 C-125.42377053 142.01688976 -125.44807712 136.6573671 -125.44702148 131.29418945 C-125.45136579 128.83651841 -125.48771191 126.38069162 -125.52563477 123.92333984 C-125.73106681 95.01497857 -114.69512943 67.34125065 -96.07641602 45.37060547 C-95.2346582 44.36513672 -94.39290039 43.35966797 -93.52563477 42.32373047 C-70.14739757 15.19429513 -35.5626651 -0.00699984 0 0 Z " fill="#FD3861" transform="translate(125.076416015625,-0.37060546875)"/>
<path d="M0 0 C1.74784467 -0.13560864 3.49873926 -0.23227209 5.25 -0.3125 C6.22453125 -0.37050781 7.1990625 -0.42851563 8.203125 -0.48828125 C9.58757812 -0.24658203 9.58757812 -0.24658203 11 0 C11.52916016 0.82048828 12.05832031 1.64097656 12.60351562 2.48632812 C15.65815747 5.69034121 17.28045555 5.61413903 21.55181885 5.71894836 C22.40612488 5.71501572 23.26043091 5.71108307 24.140625 5.70703125 C25.46389801 5.72971321 25.46389801 5.72971321 26.81390381 5.75285339 C29.62619497 5.79577476 32.43741375 5.80457248 35.25 5.8125 C37.15888277 5.83564092 39.06773996 5.86100541 40.9765625 5.88867188 C45.65113665 5.95156794 50.32503999 5.98386854 55 6 C55.41916153 31.7813451 44.81544639 56.6124012 28 76 C27.33613281 76.80824219 26.67226562 77.61648437 25.98828125 78.44921875 C15.71931712 90.54040203 2.98045589 98.79495134 -11 106 C-11.95519531 106.50402344 -12.91039062 107.00804687 -13.89453125 107.52734375 C-21.5607393 111.30872673 -29.66755478 113.25075499 -38 115 C-38.83184814 115.18022705 -39.66369629 115.3604541 -40.52075195 115.54614258 C-47.4481609 116.94207989 -54.12946031 117.3503168 -61.1875 117.3125 C-62.28175293 117.30758545 -63.37600586 117.3026709 -64.50341797 117.29760742 C-95.65218826 116.85000166 -124.27961303 102.98978711 -146 81 C-157.16447998 68.80211361 -164.96886123 55.28240842 -171 40 C-171.26433838 39.3407251 -171.52867676 38.6814502 -171.80102539 38.00219727 C-173.51133411 33.61870406 -174.74861828 29.31236181 -175.6875 24.6875 C-175.93886719 23.49511719 -176.19023437 22.30273438 -176.44921875 21.07421875 C-177.12282393 16.09145139 -177 11.02809254 -177 6 C-151.26 6 -125.52 6 -99 6 C-98.01 9.3 -97.02 12.6 -96 16 C-90.72560949 26.47299954 -82.91629627 32.97030637 -72.15234375 37.08984375 C-61.25526069 40.23608954 -50.2255695 37.68202049 -40.45703125 32.53515625 C-30.42879531 26.26950168 -26.01343998 17.09000209 -23 6 C-22.44014404 5.98018066 -21.88028809 5.96036133 -21.3034668 5.93994141 C-18.76434146 5.84462217 -16.22603112 5.73497247 -13.6875 5.625 C-12.80642578 5.5940625 -11.92535156 5.563125 -11.01757812 5.53125 C-10.17001953 5.49257812 -9.32246094 5.45390625 -8.44921875 5.4140625 C-7.66893311 5.3826416 -6.88864746 5.3512207 -6.0847168 5.31884766 C-3.69844232 5.10412111 -3.69844232 5.10412111 -1 3 C-0.67 2.01 -0.34 1.02 0 0 Z " fill="#D1D1D1" transform="translate(189,128)"/>
<path d="M0 0 C2.45767104 -0.00434431 4.91349783 -0.04069043 7.37084961 -0.07861328 C36.27921089 -0.28404533 63.9529388 10.75189205 85.92358398 29.37060547 C86.92905273 30.21236328 87.93452148 31.05412109 88.97045898 31.92138672 C111.22742127 51.10086971 127.37621192 80.10267441 130.92358398 109.37060547 C131.2709385 114.72432118 131.29524509 120.08384384 131.29418945 125.44702148 C131.29853376 127.90469253 131.33487988 130.36051932 131.37280273 132.81787109 C131.57823478 161.72623237 120.5422974 189.39996028 101.92358398 211.37060547 C101.08182617 212.37607422 100.24006836 213.38154297 99.37280273 214.41748047 C88.29105765 227.27736738 74.98876795 236.70985193 59.92358398 244.37060547 C58.96967773 244.86173828 58.01577148 245.35287109 57.03295898 245.85888672 C40.66412368 253.77375768 23.87638246 256.74475965 5.84716797 256.74121094 C3.38949693 256.74555524 0.93367014 256.78190136 -1.52368164 256.81982422 C-30.43204292 257.02525626 -58.10577083 245.98931889 -80.07641602 227.37060547 C-81.08188477 226.52884766 -82.08735352 225.68708984 -83.12329102 224.81982422 C-105.3802533 205.64034123 -121.52904395 176.63853653 -125.07641602 147.37060547 C-125.42377053 142.01688976 -125.44807712 136.6573671 -125.44702148 131.29418945 C-125.45136579 128.83651841 -125.48771191 126.38069162 -125.52563477 123.92333984 C-125.73106681 95.01497857 -114.69512943 67.34125065 -96.07641602 45.37060547 C-95.2346582 44.36513672 -94.39290039 43.35966797 -93.52563477 42.32373047 C-70.14739757 15.19429513 -35.5626651 -0.00699984 0 0 Z M-85.07641602 50.37060547 C-103.47656447 71.47247587 -111.60864312 94.48292054 -113.07641602 122.37060547 C-87.66641602 122.37060547 -62.25641602 122.37060547 -36.07641602 122.37060547 C-34.09641602 117.75060547 -32.11641602 113.13060547 -30.07641602 108.37060547 C-25.00353423 100.25399461 -18.24887797 94.94896268 -9.13500977 91.83154297 C-5.48204818 91.01361229 -1.7914186 90.94789183 1.92358398 91.37060547 C2.25358398 91.70060547 2.58358398 92.03060547 2.92358398 92.37060547 C2.63628343 94.71005283 2.30421619 97.04451977 1.92358398 99.37060547 C1.23393555 99.50595703 0.54428711 99.64130859 -0.16625977 99.78076172 C-9.65649125 101.9547928 -16.83217508 106.40093773 -22.14672852 114.70263672 C-25.83868437 121.32643986 -26.22247501 128.71088057 -24.42407227 136.02294922 C-21.66182619 143.71693076 -17.19798989 150.02746372 -9.82641602 153.80810547 C-2.2467749 157.18862541 5.3108216 157.64748255 13.17358398 154.74560547 C21.46684401 150.97355218 26.26077424 145.69517307 29.92358398 137.37060547 C32.35142189 129.65410154 31.44316041 122.19498522 27.89624023 115.05029297 C27.0342168 113.39538026 27.0342168 113.39538026 25.92358398 112.37060547 C25.73608398 109.93310547 25.73608398 109.93310547 25.92358398 107.37060547 C27.92358398 105.37060547 27.92358398 105.37060547 30.36108398 105.18310547 C32.92358398 105.37060547 32.92358398 105.37060547 35.92358398 106.37060547 C36.92358398 108.80810547 36.92358398 108.80810547 37.92358398 112.37060547 C38.46314438 114.16290757 39.00491471 115.95454546 39.54858398 117.74560547 C40.00782052 119.28700333 40.4664616 120.82857931 40.92358398 122.37060547 C41.48343994 122.3904248 42.0432959 122.41024414 42.62011719 122.43066406 C45.15924253 122.5259833 47.69755286 122.635633 50.23608398 122.74560547 C51.1171582 122.77654297 51.99823242 122.80748047 52.90600586 122.83935547 C53.75356445 122.87802734 54.60112305 122.91669922 55.47436523 122.95654297 C56.6447937 123.00367432 56.6447937 123.00367432 57.83886719 123.05175781 C59.92358398 123.37060547 59.92358398 123.37060547 62.92358398 125.37060547 C63.29858398 128.37060547 63.29858398 128.37060547 62.92358398 131.37060547 C59.84666633 133.42188391 58.987134 133.64321419 55.47436523 133.78466797 C54.62680664 133.82333984 53.77924805 133.86201172 52.90600586 133.90185547 C52.02493164 133.93279297 51.14385742 133.96373047 50.23608398 133.99560547 C49.3434082 134.03427734 48.45073242 134.07294922 47.53100586 134.11279297 C45.32873778 134.20700765 43.12647676 134.29262135 40.92358398 134.37060547 C40.70444336 135.14404297 40.48530273 135.91748047 40.25952148 136.71435547 C36.84989975 147.91343824 31.0708438 156.8059268 20.62280273 162.65966797 C11.70053839 166.8283898 1.27300443 168.08272247 -8.30688477 165.49951172 C-19.28749959 161.25478736 -28.00322764 153.51148211 -32.88891602 142.68310547 C-34.07641602 139.37060547 -34.07641602 139.37060547 -35.07641602 134.37060547 C-60.81641602 134.37060547 -86.55641602 134.37060547 -113.07641602 134.37060547 C-113.07641602 165.75937352 -98.07522851 192.83828498 -76.57250977 214.94482422 C-53.52895485 236.69763635 -22.55686174 246.40856284 8.63452148 245.72607422 C39.24678003 244.42989635 69.07447035 229.44710719 89.94311523 207.23388672 C107.65617601 187.52189804 119.35627705 160.95719073 118.92358398 134.37060547 C117.72233887 134.35078613 116.52109375 134.3309668 115.28344727 134.31054688 C110.83661544 134.23460927 106.39011594 134.14587415 101.94360352 134.05322266 C100.01723785 134.01488379 98.09079938 133.98003964 96.16430664 133.94873047 C93.39890481 133.90318602 90.63400629 133.8451751 87.86889648 133.78466797 C87.00426788 133.77311676 86.13963928 133.76156555 85.24880981 133.74966431 C79.1513274 133.59834888 79.1513274 133.59834888 76.92358398 131.37060547 C76.67358398 128.37060547 76.67358398 128.37060547 76.92358398 125.37060547 C80.01002172 122.28416773 83.72117815 123.01195538 87.86889648 122.95654297 C88.75390839 122.93717682 89.63892029 122.91781067 90.55075073 122.89785767 C93.38326315 122.83797824 96.21581602 122.79164334 99.04858398 122.74560547 C100.96657066 122.70743336 102.88454006 122.66838209 104.80249023 122.62841797 C109.50938147 122.53226992 114.21635295 122.44827005 118.92358398 122.37060547 C118.79047698 119.32985407 118.65012187 116.28972511 118.50561523 113.24951172 C118.46891724 112.3940979 118.43221924 111.53868408 118.39440918 110.65734863 C118.08059331 104.22798807 117.1358125 98.4418335 114.92358398 92.37060547 C114.64643555 91.58169922 114.36928711 90.79279297 114.08374023 89.97998047 C102.99225714 60.46616281 81.99794896 36.41860023 53.41967773 22.68701172 C49.94926519 21.15942069 46.46134714 19.7344152 42.92358398 18.37060547 C41.93745117 17.99033203 40.95131836 17.61005859 39.93530273 17.21826172 C-5.02597558 1.09547585 -52.96113084 16.62650679 -85.07641602 50.37060547 Z " fill="#050303" transform="translate(125.076416015625,-0.37060546875)"/>
<path d="M0 0 C2.31 0 4.62 0 7 0 C7.309375 0.969375 7.61875 1.93875 7.9375 2.9375 C8.69523342 5.84065792 8.69523342 5.84065792 10 7 C11.99950636 7.04443347 14.00038436 7.03920815 16 7 C20 7 20 7 23 9 C22.7525 10.175625 22.505 11.35125 22.25 12.5625 C21.59437636 17.55941535 23.25934103 19.88901154 26 24 C28.45055893 31.35167679 27.41813018 38.75796117 24.25390625 45.71484375 C20.16811372 53.16091424 14.21723589 58.04387568 6.05078125 60.61328125 C-3.03985213 62.32751497 -10.30727782 60.77601935 -17.9375 55.71484375 C-23.59621517 51.3366568 -27.6647222 45.08101865 -29 38 C-29.90108617 28.61984067 -28.07886357 21.70290445 -22.3125 14.25 C-17.75868934 9.30619044 -12.10665907 6.3152177 -5.5625 4.9375 C-1.9348234 4.39126344 -1.9348234 4.39126344 -0.5 1.875 C-0.335 1.25625 -0.17 0.6375 0 0 Z " fill="#CFCFCF" transform="translate(129,95)"/>
<path d="M0 0 C2.5625 0.25 2.5625 0.25 5.5625 2.25 C5.99382515 6.30445642 5.86269361 7.79970958 3.5625 11.25 C0.5625 11.5625 0.5625 11.5625 -2.4375 11.25 C-4.4375 9.25 -4.4375 9.25 -4.6875 5.75 C-4.40285958 1.76503411 -4.11280588 0.42182624 0 0 Z " fill="#0D0608" transform="translate(141.4375,91.75)"/>
<path d="M0 0 C0.66 0.33 1.32 0.66 2 1 C-1.63 4.63 -5.26 8.26 -9 12 C-9 8.00102358 -7.64683965 6.93298448 -5 4 C-3.36643049 2.62631655 -1.7074998 1.28062485 0 0 Z " fill="#26080E" transform="translate(106,95)"/>
</svg>
